<?xml version="1.0" encoding="UTF-8"?> <svg xmlns="http://www.w3.org/2000/svg" width="194" height="47" viewBox="0 0 194 47" fill="none"><path d="M28.1965 41.3868V46.9292H27.6326V41.3868H28.1965Z" fill="#1D1D1B"></path><path d="M36.2939 46.9292H35.7358L32.6993 42.3021V46.9292H32.1411V41.3954H32.6993L35.7358 46.0327V41.3954H36.2939V46.9292Z" fill="#1D1D1B"></path><path d="M44.3828 46.9292H43.8247L40.7881 42.3021V46.9292H40.23V41.3954H40.7881L43.8247 46.0327V41.3954H44.3828V46.9292Z" fill="#1D1D1B"></path><path d="M52.2271 41.6861C52.6357 41.9277 52.9691 42.2781 53.1901 42.6982C53.4201 43.152 53.54 43.6536 53.54 44.1623C53.54 44.671 53.4201 45.1726 53.1901 45.6263C52.97 46.0472 52.6364 46.3978 52.2271 46.6385C51.8046 46.8755 51.3284 47 50.844 47C50.3596 47 49.8834 46.8755 49.4609 46.6385C49.0516 46.3978 48.7179 46.0472 48.4979 45.6263C48.2678 45.1726 48.1479 44.671 48.1479 44.1623C48.1479 43.6536 48.2678 43.152 48.4979 42.6982C48.7189 42.2781 49.0523 41.9277 49.4609 41.6861C49.8834 41.4491 50.3596 41.3246 50.844 41.3246C51.3284 41.3246 51.8046 41.4491 52.2271 41.6861ZM49.7544 42.1199C49.4291 42.3124 49.1649 42.5932 48.9924 42.9296C48.8078 43.313 48.7119 43.7331 48.7119 44.1587C48.7119 44.5842 48.8078 45.0043 48.9924 45.3878C49.1653 45.7239 49.4294 46.0046 49.7544 46.1975C50.0875 46.3825 50.4623 46.4795 50.8433 46.4795C51.2243 46.4795 51.599 46.3825 51.9321 46.1975C52.2578 46.0054 52.5221 45.7245 52.6941 45.3878C52.8788 45.0043 52.9746 44.5842 52.9746 44.1587C52.9746 43.7331 52.8788 43.313 52.6941 42.9296C52.5225 42.5925 52.2581 42.3116 51.9321 42.1199C51.5993 41.934 51.2244 41.8364 50.8433 41.8364C50.4621 41.8364 50.0872 41.934 49.7544 42.1199Z" fill="#1D1D1B"></path><path d="M57.4848 41.3868L59.2706 46.2843L61.0694 41.3868H61.6752L59.6162 46.9292H58.9322L56.8804 41.3868H57.4848Z" fill="#1D1D1B"></path><path d="M68.3945 45.5772H65.864L65.3579 46.9292H64.7795L66.8227 41.5126H67.443L69.4876 46.9292H68.8904L68.3945 45.5772ZM68.2296 45.1362L67.1365 42.1502L66.0289 45.1362H68.2296Z" fill="#1D1D1B"></path><path d="M76.2403 41.3868V41.835H74.6598V46.9292H74.1089V41.835H72.5371V41.3868H76.2403Z" fill="#1D1D1B"></path><path d="M80.2876 41.3868V46.9292H79.7295V41.3868H80.2876Z" fill="#1D1D1B"></path><path d="M84.4218 41.3868L86.2061 46.2843L88.0064 41.3868H88.6122L86.5517 46.9292H85.8678L83.8174 41.3868H84.4218Z" fill="#1D1D1B"></path><path d="M92.6869 41.835V43.9259H94.8558V44.3597H92.6869V46.4737H95.0843V46.9306H92.1331V41.3868H95.0886V41.835H92.6869Z" fill="#1D1D1B"></path><path d="M106.795 46.2337C106.671 46.4638 106.481 46.6523 106.25 46.7759C105.966 46.9235 105.649 46.9952 105.329 46.9841C105.002 46.9903 104.677 46.9231 104.379 46.7875C104.116 46.6675 103.887 46.4824 103.715 46.2496C103.551 46.0255 103.451 45.7603 103.426 45.4832H104.005C104.03 45.6561 104.091 45.8217 104.185 45.969C104.293 46.1391 104.442 46.279 104.619 46.3754C104.829 46.4875 105.065 46.5428 105.303 46.5359C105.45 46.5453 105.597 46.5245 105.736 46.4748C105.874 46.4251 106.001 46.3474 106.109 46.2467C106.201 46.1528 106.274 46.0411 106.322 45.9183C106.37 45.7955 106.393 45.6642 106.389 45.5324C106.398 45.3161 106.333 45.1032 106.204 44.9294C106.082 44.7764 105.925 44.6541 105.747 44.5722C105.505 44.4658 105.258 44.3741 105.005 44.2975C104.719 44.211 104.439 44.1047 104.168 43.9794C103.954 43.8753 103.768 43.7198 103.629 43.5268C103.453 43.2445 103.379 42.9105 103.419 42.5805C103.46 42.2504 103.612 41.944 103.85 41.7121C104.139 41.4489 104.545 41.3188 105.06 41.3188C105.575 41.3188 105.999 41.4475 106.305 41.7034C106.601 41.9428 106.797 42.2852 106.852 42.6621H106.263C106.21 42.4174 106.078 42.1967 105.889 42.0331C105.657 41.8398 105.361 41.7415 105.06 41.7584C104.779 41.7438 104.502 41.8334 104.282 42.01C104.116 42.1749 104.014 42.3935 103.994 42.6268C103.974 42.86 104.037 43.0929 104.172 43.2839C104.292 43.4297 104.444 43.5456 104.616 43.6222C104.853 43.7232 105.094 43.812 105.339 43.8883C105.631 43.976 105.916 44.0837 106.192 44.2107C106.413 44.3196 106.603 44.4816 106.746 44.6821C106.909 44.929 106.989 45.2212 106.975 45.5165C106.976 45.7668 106.914 46.0134 106.795 46.2337Z" fill="#1D1D1B"></path><path d="M114.628 41.6861C115.037 41.9277 115.37 42.2781 115.591 42.6982C115.821 43.152 115.941 43.6536 115.941 44.1623C115.941 44.671 115.821 45.1726 115.591 45.6263C115.371 46.0472 115.038 46.3978 114.628 46.6385C114.206 46.8755 113.729 47 113.245 47C112.761 47 112.284 46.8755 111.862 46.6385C111.453 46.3978 111.119 46.0472 110.899 45.6263C110.669 45.1726 110.549 44.671 110.549 44.1623C110.549 43.6536 110.669 43.152 110.899 42.6982C111.12 42.2781 111.453 41.9277 111.862 41.6861C112.284 41.4491 112.761 41.3246 113.245 41.3246C113.729 41.3246 114.206 41.4491 114.628 41.6861ZM112.157 42.1199C111.831 42.3119 111.566 42.5927 111.394 42.9296C111.21 43.3133 111.115 43.7333 111.115 44.1587C111.115 44.5841 111.21 45.0041 111.394 45.3878C111.567 45.7243 111.831 46.005 112.157 46.1975C112.49 46.3825 112.865 46.4795 113.246 46.4795C113.627 46.4795 114.002 46.3825 114.335 46.1975C114.66 46.005 114.924 45.7242 115.097 45.3878C115.281 45.0043 115.377 44.5842 115.377 44.1587C115.377 43.7331 115.281 43.313 115.097 42.9296C114.925 42.5928 114.66 42.312 114.335 42.1199C114.002 41.934 113.627 41.8364 113.246 41.8364C112.865 41.8364 112.49 41.934 112.157 42.1199Z" fill="#1D1D1B"></path><path d="M120.256 46.4882H122.269V46.9219H119.698V41.3868H120.256V46.4882Z" fill="#1D1D1B"></path><path d="M126.293 41.3868V44.7429C126.293 45.3357 126.422 45.7695 126.682 46.0442C126.82 46.1854 126.986 46.2956 127.17 46.3674C127.353 46.4392 127.55 46.471 127.747 46.4607C127.943 46.4713 128.139 46.4397 128.321 46.3678C128.504 46.2959 128.669 46.1856 128.804 46.0442C129.059 45.7666 129.185 45.3314 129.185 44.7429V41.3868H129.736V44.7429C129.736 45.4933 129.555 46.0529 129.193 46.426C128.832 46.799 128.347 46.9841 127.739 46.9841C127.472 46.9958 127.206 46.9522 126.957 46.8562C126.709 46.7601 126.482 46.6137 126.293 46.426C125.931 46.0529 125.75 45.4933 125.75 44.7429V41.3868H126.293Z" fill="#1D1D1B"></path><path d="M136.896 41.3868V41.835H135.316V46.9292H134.765V41.835H133.194V41.3868H136.896Z" fill="#1D1D1B"></path><path d="M140.945 41.3868V46.9292H140.387V41.3868H140.945Z" fill="#1D1D1B"></path><path d="M148.791 41.6861C149.199 41.9277 149.533 42.2781 149.754 42.6982C149.984 43.152 150.104 43.6536 150.104 44.1623C150.104 44.671 149.984 45.1726 149.754 45.6263C149.534 46.0472 149.2 46.3978 148.791 46.6385C148.368 46.8755 147.892 47 147.408 47C146.923 47 146.447 46.8755 146.025 46.6385C145.615 46.3978 145.282 46.0472 145.062 45.6263C144.832 45.1726 144.712 44.671 144.712 44.1623C144.712 43.6536 144.832 43.152 145.062 42.6982C145.283 42.2781 145.616 41.9277 146.025 41.6861C146.447 41.4491 146.923 41.3246 147.408 41.3246C147.892 41.3246 148.368 41.4491 148.791 41.6861ZM146.32 42.1199C145.993 42.3119 145.729 42.5927 145.556 42.9296C145.372 43.3133 145.277 43.7333 145.277 44.1587C145.277 44.5841 145.372 45.0041 145.556 45.3878C145.729 45.7243 145.994 46.005 146.32 46.1975C146.653 46.3825 147.027 46.4795 147.408 46.4795C147.789 46.4795 148.164 46.3825 148.497 46.1975C148.823 46.005 149.087 45.7242 149.259 45.3878C149.444 45.0043 149.54 44.5842 149.54 44.1587C149.54 43.7331 149.444 43.313 149.259 42.9296C149.087 42.5928 148.823 42.312 148.497 42.1199C148.164 41.934 147.79 41.8364 147.408 41.8364C147.027 41.8364 146.652 41.934 146.32 42.1199Z" fill="#1D1D1B"></path><path d="M158 46.9292H157.442L154.405 42.3021V46.9292H153.852V41.3954H154.41L157.446 46.0327V41.3954H158.004L158 46.9292Z" fill="#1D1D1B"></path><path d="M165.149 46.2337C165.024 46.4639 164.834 46.6524 164.602 46.7759C164.319 46.9236 164.002 46.9953 163.683 46.9841C163.355 46.9903 163.031 46.9231 162.733 46.7875C162.469 46.6671 162.24 46.4821 162.068 46.2496C161.903 46.0252 161.803 45.7602 161.778 45.4832H162.357C162.382 45.6561 162.444 45.8217 162.538 45.969C162.645 46.1391 162.795 46.279 162.971 46.3754C163.181 46.4875 163.417 46.5428 163.655 46.5359C163.802 46.5453 163.949 46.5245 164.088 46.4748C164.227 46.4251 164.353 46.3474 164.461 46.2467C164.553 46.1528 164.626 46.041 164.674 45.9182C164.722 45.7954 164.744 45.6641 164.74 45.5324C164.75 45.316 164.684 45.1029 164.555 44.9294C164.433 44.7764 164.277 44.6541 164.099 44.5722C163.858 44.4658 163.61 44.3741 163.357 44.2975C163.071 44.2112 162.791 44.1049 162.52 43.9794C162.306 43.8753 162.121 43.7198 161.981 43.5268C161.805 43.2445 161.731 42.9108 161.771 42.5808C161.811 42.2508 161.963 41.9443 162.201 41.7121C162.49 41.4489 162.898 41.3188 163.412 41.3188C163.927 41.3188 164.351 41.4475 164.657 41.7034C164.954 41.9428 165.149 42.2852 165.204 42.6621H164.614C164.561 42.4176 164.43 42.1969 164.241 42.0331C164.009 41.8401 163.713 41.742 163.412 41.7584C163.131 41.7444 162.853 41.8339 162.633 42.01C162.468 42.1754 162.366 42.3939 162.346 42.6269C162.326 42.8599 162.389 43.0926 162.523 43.2839C162.643 43.4294 162.795 43.5452 162.967 43.6222C163.143 43.7003 163.383 43.79 163.69 43.8883C163.981 43.976 164.267 44.0837 164.543 44.2107C164.764 44.3196 164.954 44.4816 165.097 44.6821C165.26 44.929 165.34 45.2212 165.325 45.5165C165.328 45.7665 165.267 46.0131 165.149 46.2337Z" fill="#1D1D1B"></path><path d="M40.0289 1.88277H35.3888V30.0084C35.383 30.3368 35.4441 30.6629 35.5684 30.967C35.6927 31.271 35.8776 31.5465 36.1118 31.7768C36.3487 32.0139 36.6313 32.2003 36.9426 32.3246C37.2538 32.4489 37.5871 32.5085 37.9221 32.4998H58.4506V27.8669H40.0289V1.88277Z" fill="#424C55"></path><path d="M57.2 6.52579H67.9435V32.507H72.5822V6.52579H83.3258V1.88566H57.2V6.52579Z" fill="#424C55"></path><path d="M91.1441 2.61586C90.9097 2.84601 90.7247 3.12153 90.6004 3.42559C90.4761 3.72964 90.4151 4.05586 90.4211 4.38429V30.0069C90.4148 30.3356 90.4757 30.6621 90.6 30.9665C90.7243 31.2708 90.9094 31.5466 91.1441 31.7768C91.381 32.0139 91.6636 32.2003 91.9749 32.3246C92.2861 32.4489 92.6194 32.5085 92.9544 32.4998H114.113V27.8669H95.0554V19.4962H112.919V14.8965H95.0554V6.52578H114.113V1.88276H92.9544C92.6189 1.87499 92.2853 1.93574 91.974 2.06129C91.6627 2.18685 91.3803 2.37456 91.1441 2.61297" fill="#424C55"></path><path d="M181.231 2.90362C181.035 2.47247 180.725 2.10232 180.336 1.83215C179.936 1.55898 179.464 1.41283 178.98 1.41283C178.496 1.41283 178.023 1.55898 177.623 1.83215C177.215 2.10126 176.892 2.48091 176.692 2.92675L164.088 32.5128H169.228L178.975 9.76621L188.581 32.5128H193.76L181.231 2.90362Z" fill="#424C55"></path><path d="M158.273 1.70924H153.59V32.6126H158.273V1.70924Z" fill="#424C55"></path><path d="M141.29 17.7711C140.15 16.9589 138.913 16.2902 137.609 15.78C136.215 15.2175 134.632 14.6608 132.91 14.1273C132.042 13.8381 131.163 13.5489 130.292 13.2409C129.496 12.9699 128.733 12.6121 128.015 12.1738C127.408 11.8061 126.878 11.325 126.453 10.7567C126.073 10.2243 125.878 9.58164 125.898 8.92754C125.88 8.25434 126.055 7.59011 126.403 7.01308C126.756 6.44209 127.225 5.95188 127.781 5.57433C128.397 5.1577 129.078 4.84507 129.796 4.64891C130.566 4.43002 131.362 4.31907 132.162 4.31923C133.925 4.31923 135.479 4.75302 136.789 5.6047C138.118 6.47228 139.15 7.49314 139.856 8.62967L140.18 9.15312L144.019 6.52723L143.73 6.05006C143.232 5.2239 142.635 4.46196 141.951 3.78132C141.191 3.0319 140.335 2.38622 139.406 1.86107C135.975 -0.0381258 131.933 -0.505829 128.159 0.559696C126.879 0.920475 125.669 1.49595 124.581 2.26161C123.521 3.00573 122.637 3.97251 121.99 5.09427C121.323 6.2928 120.986 7.64614 121.011 9.01719C121.011 10.3981 121.3 11.6084 121.888 12.6133C122.483 13.6297 123.283 14.5116 124.237 15.2031C125.286 15.9678 126.43 16.5938 127.64 17.0655C128.9 17.5687 130.278 18.0473 131.724 18.4854C133.08 18.9192 134.282 19.3386 135.291 19.7362C136.163 20.0664 136.998 20.4866 137.782 20.9899C138.35 21.3468 138.835 21.8205 139.205 22.3794C139.518 22.8994 139.674 23.4981 139.656 24.1045C139.669 24.7864 139.494 25.4586 139.15 26.0479C138.79 26.6387 138.304 27.1432 137.728 27.5257C137.061 27.9647 136.329 28.2937 135.559 28.5002C134.704 28.7369 133.821 28.8556 132.934 28.8531C130.654 28.8531 128.784 28.4034 127.377 27.5155C125.929 26.5936 124.723 25.3369 123.862 23.8514L123.55 23.3237L119.747 25.7746L120 26.2532C121.114 28.3179 122.793 30.023 124.84 31.1695C126.003 31.8162 127.246 32.3082 128.537 32.6328C129.991 32.9979 131.486 33.1772 132.986 33.1664C134.379 33.1653 135.766 32.9771 137.109 32.6068C138.424 32.2534 139.674 31.6889 140.809 30.9353C141.909 30.204 142.832 29.2368 143.511 28.104C144.198 26.9473 144.548 25.5909 144.548 24.0553C144.548 22.6484 144.259 21.4251 143.699 20.4201C143.096 19.3758 142.276 18.4733 141.293 17.774" fill="#424C55"></path><path d="M9.20513 16.169C9.88184 16.8602 10.5672 17.5528 11.2526 18.2439L14.8936 9.76042L24.4977 32.507H29.6772L17.1435 2.90506C16.9474 2.47364 16.6388 2.10301 16.2499 1.83215C15.8503 1.55898 15.3776 1.41283 14.8936 1.41283C14.4096 1.41283 13.9368 1.55898 13.5373 1.83215C13.1293 2.10126 12.8063 2.48091 12.6061 2.92675L7.5813 14.7129C8.15496 15.1609 8.69749 15.6474 9.20513 16.169Z" fill="#424C55"></path><path d="M5.41083 22.9202L4.48252 21.9905L0 32.507H5.14044L8.09745 25.5967C7.19661 24.6959 6.29721 23.7994 5.41083 22.9145" fill="#424C55"></path><mask id="mask0_12_462" style="mask-type:luminance" maskUnits="userSpaceOnUse" x="1" y="14" width="22" height="19"><path d="M1.7439 18.873C3.27229 19.0016 3.9678 19.4311 5.0118 20.4736C7.96592 23.4278 10.9302 26.3617 13.8554 29.3389C15.1192 30.6273 16.4986 31.6944 18.2482 32.215C19.0652 32.4579 21.6058 32.5345 22.5211 32.5446L20.7339 27.9985C19.4933 27.9085 18.33 27.3619 17.4689 26.4643C14.5162 23.4885 11.5259 20.5532 8.59492 17.5557C7.12726 16.0533 5.49475 14.9066 3.40532 14.4902C2.85815 14.3826 2.30154 14.3303 1.7439 14.334V18.873Z" fill="white"></path></mask><g mask="url(#mask0_12_462)"><path d="M22.5225 14.334H1.7439V32.5446H22.5225V14.334Z" fill="url(#paint0_linear_12_462)"></path></g><defs><linearGradient id="paint0_linear_12_462" x1="1.71278" y1="23.5684" x2="22.4902" y2="23.5684" gradientUnits="userSpaceOnUse"><stop stop-color="#FEC91A"></stop><stop offset="0.09" stop-color="#FDC219"></stop><stop offset="0.21" stop-color="#F9AE18"></stop><stop offset="0.36" stop-color="#F48D15"></stop><stop offset="0.53" stop-color="#EC6112"></stop><stop offset="0.63" stop-color="#E74510"></stop><stop offset="0.71" stop-color="#E74011"></stop><stop offset="0.82" stop-color="#E63012"></stop><stop offset="0.93" stop-color="#E41715"></stop><stop offset="1" stop-color="#E30517"></stop></linearGradient></defs></svg> 