<svg xmlns="http://www.w3.org/2000/svg" viewBox="0 0 1200 630">
  <rect width="1200" height="630" fill="#000000"/>
  <path fill="#f5f5f7" d="M312.813 370L292.813 370L353.516 253.594L375.391 253.594L398.281 370L379.766 370L367.813 305.234Q366.641 298.047 365.156 286.992Q363.672 275.938 362.031 260.938L365.625 260.938Q359.375 275.391 354.414 286.367Q349.453 297.344 345.625 305.234L312.813 370M380.859 339.297L320.313 339.297L322.813 324.453L383.281 324.453 M433.203 370L415.156 370L434.453 253.594L454.609 253.594L486.953 322.891Q488.281 325.859 490.234 330.547Q492.188 335.234 494.336 341.367Q496.484 347.500 498.438 354.844L496.563 354.844Q497.031 348.203 497.734 341.719Q498.438 335.234 499.258 329.570Q500.078 323.906 500.703 319.844L511.641 253.594L529.688 253.594L510.391 370L490.156 370L461.172 308.047Q458.984 303.281 456.875 298.203Q454.766 293.125 452.227 286.289Q449.688 279.453 445.859 269.453L448.281 269.453Q447.188 278.672 446.289 286.094Q445.391 293.516 444.727 298.984Q444.063 304.453 443.438 307.891 M585.859 371.563Q571.875 371.563 561.797 365.898Q551.719 360.234 546.211 349.727Q540.703 339.219 540.703 324.688Q540.703 310.703 545.039 297.695Q549.375 284.688 557.500 274.375Q565.625 264.063 577.109 258.047Q588.594 252.031 602.891 252.031Q612.344 252.031 620.234 254.805Q628.125 257.578 633.867 262.656Q639.609 267.734 642.773 274.805Q645.938 281.875 645.938 290.391L627.656 290.391Q626.875 285.313 624.922 281.211Q622.969 277.109 619.805 274.219Q616.641 271.328 612.266 269.805Q607.891 268.281 602.344 268.281Q592.031 268.281 583.867 273.047Q575.703 277.813 570 285.898Q564.297 293.984 561.289 303.867Q558.281 313.750 558.281 323.984Q558.281 339.375 566.055 347.344Q573.828 355.313 586.563 355.313Q596.250 355.313 604.141 351.367Q612.031 347.422 617.227 340.273Q622.422 333.125 623.984 323.594L628.281 325L595.156 325L597.578 310.313L643.516 310.313L641.250 324.219Q639.375 335.234 634.492 343.945Q629.609 352.656 622.227 358.828Q614.844 365 605.586 368.281Q596.328 371.563 585.859 371.563 M729.453 370L655.703 370L675 253.594L748.281 253.594L745.703 268.906L690.313 268.906L684.609 303.594L736.094 303.594L733.516 318.750L681.953 318.750L676.016 354.688L731.953 354.688 M823.125 370L752.578 370L771.875 253.594L789.688 253.594L772.969 354.688L825.625 354.688 "/>
  <path fill="#1F8BFF" d="M882.422 253.594L903.047 253.594L883.750 370L866.094 370L882.734 269.766L881.953 269.766L850.938 289.922L853.906 272.031"/>
  <path fill="#9d9d9d" d="M393.976 430L391.400 430L396.720 409.560L400.108 409.560L405.400 430L402.852 430L401.508 424.568L395.320 424.568L393.976 430M397.392 416.112L395.824 422.440L400.976 422.440L399.408 416.140Q398.960 414.348 398.708 413.144Q398.456 411.940 398.400 411.576Q398.344 411.940 398.092 413.144Q397.840 414.348 397.392 416.112 M420.660 430L409.740 430L409.740 427.704L413.912 427.704L413.912 411.856L409.740 411.856L409.740 409.560L420.660 409.560L420.660 411.856L416.488 411.856L416.488 427.704L420.660 427.704 M436.480 421.880L427.520 421.880L427.520 419.640L436.480 419.640 M454.960 430L443.200 430L443.200 409.560L454.960 409.560L454.960 411.856L445.692 411.856L445.692 418.184L453.980 418.184L453.980 420.452L445.692 420.452L445.692 427.704L454.960 427.704 M462.296 430L459.776 430L459.776 414.600L462.296 414.600L462.296 417.540L462.828 417.540L462.296 418.128Q462.296 416.308 463.388 415.314Q464.480 414.320 466.412 414.320Q468.736 414.320 470.108 415.748Q471.480 417.176 471.480 419.640L471.480 430L468.960 430L468.960 419.920Q468.960 418.268 468.078 417.386Q467.196 416.504 465.684 416.504Q464.116 416.504 463.206 417.456Q462.296 418.408 462.296 420.200 M479.096 430L476.576 430L476.576 409.560L479.096 409.560L479.096 414.600L479.096 417.540L479.628 417.540L479.096 418.128Q479.096 416.308 480.188 415.314Q481.280 414.320 483.212 414.320Q485.536 414.320 486.908 415.748Q488.280 417.176 488.280 419.640L488.280 430L485.760 430L485.760 419.920Q485.760 418.268 484.878 417.358Q483.996 416.448 482.484 416.448Q480.916 416.448 480.006 417.428Q479.096 418.408 479.096 420.200 M497.856 430.280Q495.420 430.280 494.020 429.034Q492.620 427.788 492.620 425.660Q492.620 423.504 494.020 422.272Q495.420 421.040 497.800 421.040L502.560 421.040L502.560 419.500Q502.560 418.072 501.706 417.302Q500.852 416.532 499.284 416.532Q497.912 416.532 496.988 417.106Q496.064 417.680 495.924 418.660L493.404 418.660Q493.656 416.672 495.280 415.496Q496.904 414.320 499.340 414.320Q502 414.320 503.540 415.692Q505.080 417.064 505.080 419.416L505.080 430L502.616 430L502.616 427.060L502.196 427.060L502.616 426.640Q502.616 428.320 501.314 429.300Q500.012 430.280 497.856 430.280M498.472 428.292Q500.264 428.292 501.412 427.396Q502.560 426.500 502.560 425.100L502.560 422.916L497.856 422.916Q496.596 422.916 495.868 423.616Q495.140 424.316 495.140 425.520Q495.140 426.808 496.022 427.550Q496.904 428.292 498.472 428.292 M512.696 430L510.176 430L510.176 414.600L512.696 414.600L512.696 417.540L513.228 417.540L512.696 418.128Q512.696 416.308 513.788 415.314Q514.880 414.320 516.812 414.320Q519.136 414.320 520.508 415.748Q521.880 417.176 521.880 419.640L521.880 430L519.360 430L519.360 419.920Q519.360 418.268 518.478 417.386Q517.596 416.504 516.084 416.504Q514.516 416.504 513.606 417.456Q512.696 418.408 512.696 420.200 M532.912 430.280Q531.064 430.280 529.678 429.580Q528.292 428.880 527.536 427.550Q526.780 426.220 526.780 424.400L526.780 420.200Q526.780 418.352 527.536 417.036Q528.292 415.720 529.678 415.020Q531.064 414.320 532.912 414.320Q535.572 414.320 537.196 415.748Q538.820 417.176 538.904 419.640L536.384 419.640Q536.300 418.156 535.390 417.358Q534.480 416.560 532.912 416.560Q531.260 416.560 530.280 417.498Q529.300 418.436 529.300 420.172L529.300 424.400Q529.300 426.136 530.280 427.088Q531.260 428.040 532.912 428.040Q534.480 428.040 535.390 427.228Q536.300 426.416 536.384 424.960L538.904 424.960Q538.820 427.424 537.196 428.852Q535.572 430.280 532.912 430.280 M549.600 430.280Q547.780 430.280 546.422 429.552Q545.064 428.824 544.322 427.494Q543.580 426.164 543.580 424.400L543.580 420.200Q543.580 418.408 544.322 417.092Q545.064 415.776 546.422 415.048Q547.780 414.320 549.600 414.320Q551.420 414.320 552.778 415.048Q554.136 415.776 554.878 417.092Q555.620 418.408 555.620 420.200L555.620 422.916L546.044 422.916L546.044 424.400Q546.044 426.220 546.968 427.186Q547.892 428.152 549.600 428.152Q551.056 428.152 551.952 427.634Q552.848 427.116 553.044 426.080L555.564 426.080Q555.312 428.012 553.674 429.146Q552.036 430.280 549.600 430.280M553.352 421.012L553.156 421.236L553.156 420.200Q553.156 418.380 552.246 417.400Q551.336 416.420 549.600 416.420Q547.892 416.420 546.968 417.400Q546.044 418.380 546.044 420.200L546.044 421.012 M565.504 430.280Q563.208 430.280 561.794 428.740Q560.380 427.200 560.380 424.568L560.380 420.060Q560.380 417.400 561.780 415.860Q563.180 414.320 565.504 414.320Q567.408 414.320 568.556 415.356Q569.704 416.392 569.704 418.128L569.200 417.540L569.760 417.540L569.704 414.040L569.704 409.560L572.224 409.560L572.224 430L569.704 430L569.704 427.060L569.200 427.060L569.704 426.472Q569.704 428.236 568.556 429.258Q567.408 430.280 565.504 430.280M566.344 428.096Q567.912 428.096 568.808 427.116Q569.704 426.136 569.704 424.400L569.704 420.200Q569.704 418.464 568.808 417.484Q567.912 416.504 566.344 416.504Q564.748 416.504 563.824 417.456Q562.900 418.408 562.900 420.200L562.900 424.400Q562.900 426.192 563.824 427.144Q564.748 428.096 566.344 428.096  M596.192 430L593.728 430L593.728 409.560L597.032 409.560L599.160 416.168Q599.468 417.064 599.720 417.946Q599.972 418.828 600.084 419.304Q600.224 418.828 600.448 417.946Q600.672 417.064 600.952 416.140L602.968 409.560L606.272 409.560L606.272 430L603.808 430L603.808 422.580Q603.808 421.348 603.892 419.780Q603.976 418.212 604.116 416.574Q604.256 414.936 604.410 413.438Q604.564 411.940 604.676 410.820L601.372 421.040L598.712 421.040L595.380 410.820Q595.520 411.912 595.660 413.354Q595.800 414.796 595.912 416.406Q596.024 418.016 596.108 419.612Q596.192 421.208 596.192 422.580 M618.508 430L615.064 430L609.800 409.560L612.404 409.560L615.876 423.448Q616.240 424.904 616.492 426.150Q616.744 427.396 616.856 428.040Q616.968 427.396 617.206 426.150Q617.444 424.904 617.808 423.448L621.252 409.560L623.800 409.560 M630.296 430L627.776 430L627.776 409.560L634.356 409.560Q636.260 409.560 637.660 410.302Q639.060 411.044 639.830 412.388Q640.600 413.732 640.600 415.580Q640.600 417.400 639.830 418.758Q639.060 420.116 637.660 420.858Q636.260 421.600 634.356 421.600L630.296 421.600L630.296 430M630.296 411.828L630.296 419.332L634.356 419.332Q636.008 419.332 637.002 418.310Q637.996 417.288 637.996 415.580Q637.996 413.844 637.002 412.836Q636.008 411.828 634.356 411.828  M666.668 430L661.376 430L661.376 409.560L666.668 409.560Q668.656 409.560 670.098 410.316Q671.540 411.072 672.338 412.444Q673.136 413.816 673.136 415.692L673.136 423.840Q673.136 425.716 672.338 427.102Q671.540 428.488 670.098 429.244Q668.656 430 666.668 430M663.896 411.800L663.896 427.760L666.668 427.760Q668.516 427.760 669.566 426.724Q670.616 425.688 670.616 423.840L670.616 415.692Q670.616 413.872 669.566 412.836Q668.516 411.800 666.668 411.800 M684 430.280Q682.180 430.280 680.822 429.552Q679.464 428.824 678.722 427.494Q677.980 426.164 677.980 424.400L677.980 420.200Q677.980 418.408 678.722 417.092Q679.464 415.776 680.822 415.048Q682.180 414.320 684 414.320Q685.820 414.320 687.178 415.048Q688.536 415.776 689.278 417.092Q690.020 418.408 690.020 420.200L690.020 422.916L680.444 422.916L680.444 424.400Q680.444 426.220 681.368 427.186Q682.292 428.152 684 428.152Q685.456 428.152 686.352 427.634Q687.248 427.116 687.444 426.080L689.964 426.080Q689.712 428.012 688.074 429.146Q686.436 430.280 684 430.280M687.752 421.012L687.556 421.236L687.556 420.200Q687.556 418.380 686.646 417.400Q685.736 416.420 684 416.420Q682.292 416.420 681.368 417.400Q680.444 418.380 680.444 420.200L680.444 421.012 M702.508 430L699.092 430L693.940 414.600L696.516 414.600L699.932 424.960Q700.240 425.884 700.492 426.738Q700.744 427.592 700.856 428.068Q700.996 427.592 701.248 426.738Q701.500 425.884 701.780 424.960L705.112 414.600L707.660 414.600 M717.600 430.280Q715.780 430.280 714.422 429.552Q713.064 428.824 712.322 427.494Q711.580 426.164 711.580 424.400L711.580 420.200Q711.580 418.408 712.322 417.092Q713.064 415.776 714.422 415.048Q715.780 414.320 717.600 414.320Q719.420 414.320 720.778 415.048Q722.136 415.776 722.878 417.092Q723.620 418.408 723.620 420.200L723.620 422.916L714.044 422.916L714.044 424.400Q714.044 426.220 714.968 427.186Q715.892 428.152 717.600 428.152Q719.056 428.152 719.952 427.634Q720.848 427.116 721.044 426.080L723.564 426.080Q723.312 428.012 721.674 429.146Q720.036 430.280 717.600 430.280M721.352 421.012L721.156 421.236L721.156 420.200Q721.156 418.380 720.246 417.400Q719.336 416.420 717.600 416.420Q715.892 416.420 714.968 417.400Q714.044 418.380 714.044 420.200L714.044 421.012 M741.400 430L736.500 430Q735.156 430 734.148 429.468Q733.140 428.936 732.580 427.956Q732.020 426.976 732.020 425.660L732.020 411.856L726.840 411.856L726.840 409.560L734.540 409.560L734.540 425.660Q734.540 426.612 735.072 427.158Q735.604 427.704 736.500 427.704L741.400 427.704 M751.200 430.224Q749.352 430.224 748.008 429.524Q746.664 428.824 745.922 427.494Q745.180 426.164 745.180 424.344L745.180 420.256Q745.180 418.408 745.922 417.092Q746.664 415.776 748.008 415.076Q749.352 414.376 751.200 414.376Q753.048 414.376 754.392 415.076Q755.736 415.776 756.478 417.092Q757.220 418.408 757.220 420.228L757.220 424.344Q757.220 426.164 756.478 427.494Q755.736 428.824 754.392 429.524Q753.048 430.224 751.200 430.224M751.200 427.984Q752.852 427.984 753.776 427.060Q754.700 426.136 754.700 424.344L754.700 420.256Q754.700 418.464 753.776 417.540Q752.852 416.616 751.200 416.616Q749.576 416.616 748.638 417.540Q747.700 418.464 747.700 420.256L747.700 424.344Q747.700 426.136 748.638 427.060Q749.576 427.984 751.200 427.984 M764.696 435.040L762.176 435.040L762.176 414.600L764.696 414.600L764.696 417.540L765.200 417.540L764.696 418.128Q764.696 416.364 765.858 415.342Q767.020 414.320 768.924 414.320Q771.248 414.320 772.634 415.846Q774.020 417.372 774.020 420.032L774.020 424.540Q774.020 426.304 773.390 427.592Q772.760 428.880 771.626 429.580Q770.492 430.280 768.924 430.280Q767.048 430.280 765.872 429.244Q764.696 428.208 764.696 426.472L765.200 427.060L764.640 427.060L764.696 430.560L764.696 435.040M768.084 428.096Q769.680 428.096 770.590 427.144Q771.500 426.192 771.500 424.400L771.500 420.200Q771.500 418.408 770.590 417.456Q769.680 416.504 768.084 416.504Q766.544 416.504 765.620 417.484Q764.696 418.464 764.696 420.200L764.696 424.400Q764.696 426.136 765.620 427.116Q766.544 428.096 768.084 428.096 M784.800 430.280Q782.980 430.280 781.622 429.552Q780.264 428.824 779.522 427.494Q778.780 426.164 778.780 424.400L778.780 420.200Q778.780 418.408 779.522 417.092Q780.264 415.776 781.622 415.048Q782.980 414.320 784.800 414.320Q786.620 414.320 787.978 415.048Q789.336 415.776 790.078 417.092Q790.820 418.408 790.820 420.200L790.820 422.916L781.244 422.916L781.244 424.400Q781.244 426.220 782.168 427.186Q783.092 428.152 784.800 428.152Q786.256 428.152 787.152 427.634Q788.048 427.116 788.244 426.080L790.764 426.080Q790.512 428.012 788.874 429.146Q787.236 430.280 784.800 430.280M788.552 421.012L788.356 421.236L788.356 420.200Q788.356 418.380 787.446 417.400Q786.536 416.420 784.800 416.420Q783.092 416.420 782.168 417.400Q781.244 418.380 781.244 420.200L781.244 421.012 M798.828 430L796.308 430L796.308 414.600L798.772 414.600L798.772 417.540L799.360 417.540L798.548 419.360Q798.548 416.868 799.626 415.594Q800.704 414.320 802.832 414.320Q805.268 414.320 806.710 415.846Q808.152 417.372 808.152 419.976L808.152 420.900L805.632 420.900L805.632 420.200Q805.632 418.380 804.750 417.414Q803.868 416.448 802.244 416.448Q800.648 416.448 799.738 417.428Q798.828 418.408 798.828 420.200 "/>
</svg>
